<svg width="100%" height="100%" viewBox="0 0 248 248" fill="none" xmlns="http://www.w3.org/2000/svg">
<g id="GIThub" filter="url(#filter0_d)">
<g id="icons8-github 1">
<path id="Vector" d="M209 120C209 167 171 205 124 205C77 205 39 167 39 120C39 73 77 35 124 35C171 35 209 73 209 120Z" fill="white"/>
<path id="Vector_2" d="M109 205V177.5C109 176 110 175 111.5 175C113 175 114 176 114 177.5V205H124V172.5C124 171 125 170 126.5 170C128 170 129 171 129 172.5V205H139V177.5C139 176 140 175 141.5 175C143 175 144 176 144 177.5V205H153C154 203.5 154 202 154 199.5V180C154 169 144.5 154 132.5 154H120C108.5 154 98.5 169.5 98.5 180V199.5C98.5 201.5 99 203.5 99.5 205H109ZM204.5 132C204.5 132 198 130 192.5 130H192C186.5 130 177.5 131.5 177.5 131.5C177 131.5 177 131.5 177 131C177 130.5 177 130.5 177.5 130.5C178 130.5 187.5 129 193 129C198.5 129 205 131 205.5 131C206 131 206 131.5 206 132C205 131.5 205 132 204.5 132ZM203 136C203 136 196 134 190 134C185.5 134 175 135 174.5 135C174 135 174 135 174 134.5C174 134 174 134 174.5 134C175 134 185.5 133 190 133C196.5 133 203 135 203 135C203.5 135 203.5 135.5 203.5 136C203.5 135.5 203.5 136 203 136ZM43 132C42.5 132 42.5 132 42.5 131.5C42.5 131 42.5 131 43 130.5C47 129.5 55 128 59.5 128C63.5 128 77 129 77.5 129C78 129 78 129.5 78 129.5C78 130 77.5 130 77.5 130C77.5 130 64 129 60 129C54.5 130 47 131 43 132ZM45 139.5C45 139.5 44.5 139.5 44.5 139C44.5 138.5 44.5 138.5 44.5 138C45 138 51.5 134 59 133C65.5 132 79 133.5 80 133.5C80.5 133.5 80.5 134 80.5 134C80.5 134.5 80 134.5 80 134.5C80 134.5 66 133 59.5 134C52 135.5 45 139.5 45 139.5Z" fill="#455A64"/>
<path id="Vector_3" d="M75 117.5C75 95.5 98 75 126.5 75C155 75 178 95 178 117.5C178 140 161.5 155 126.5 155C91.5 155 75 139.5 75 117.5Z" fill="#455A64"/>
<path id="Vector_4" d="M147 81.5C147 81.5 155.5 70 171 70C177 76 173 94 171 99L147 81.5ZM106 81.5C106 81.5 97.5 70 82 70C76 76 80 94 82 99L106 81.5ZM104.5 179.5C104.5 179.5 93 179.5 90.5 179.5C84.5 179.5 79 177 76.5 172C73.5 166.5 71 160.5 63.5 155.5C62 154.5 63 153.5 65.5 153.5C68 154 72.5 154.5 76 159C79.5 163.5 83.5 169 90 169C96.5 169 103.5 169 107.5 164.5L104.5 179.5Z" fill="#455A64"/>
<path id="Vector_5" d="M124 20C69 20 24 65 24 120C24 175 69 220 124 220C179 220 224 175 224 120C224 65 179 20 124 20ZM124 200C80 200 44 164 44 120C44 76 80 40 124 40C168 40 204 76 204 120C204 164 168 200 124 200Z" fill="#00E9CD"/>
</g>
</g>
<defs>
<filter id="filter0_d" x="0" y="0" width="248" height="248" filterUnits="userSpaceOnUse" color-interpolation-filters="sRGB">
<feFlood flood-opacity="0" result="BackgroundImageFix"/>
<feColorMatrix in="SourceAlpha" type="matrix" values="0 0 0 0 0 0 0 0 0 0 0 0 0 0 0 0 0 0 127 0"/>
<feOffset dy="4"/>
<feGaussianBlur stdDeviation="2"/>
<feColorMatrix type="matrix" values="0 0 0 0 0 0 0 0 0 0 0 0 0 0 0 0 0 0 0.25 0"/>
<feBlend mode="normal" in2="BackgroundImageFix" result="effect1_dropShadow"/>
<feBlend mode="normal" in="SourceGraphic" in2="effect1_dropShadow" result="shape"/>
</filter>
</defs>
</svg>
